<?xml version="1.0" encoding="UTF-8" ?>
<!DOCTYPE svg PUBLIC "-//W3C//DTD SVG 1.1//EN" "http://www.w3.org/Graphics/SVG/1.1/DTD/svg11.dtd">
<svg width="64pt" height="64pt" viewBox="0 0 64 64" version="1.1" xmlns="http://www.w3.org/2000/svg">
<g id="#454b54ff">
<path fill="#454b54" opacity="1.00" d=" M 12.62 7.00 C 14.47 5.47 17.45 6.27 19.72 6.41 C 21.33 9.10 22.17 12.16 23.31 15.07 C 24.73 15.12 26.16 15.18 27.59 15.24 C 25.74 12.85 22.49 9.77 24.62 6.56 C 29.96 5.90 35.37 6.41 40.74 6.29 C 44.49 10.23 48.78 13.70 52.03 18.07 C 49.40 23.42 42.46 21.48 37.82 20.66 C 37.27 23.98 36.83 27.50 38.27 30.68 C 39.93 34.43 40.62 38.88 38.58 42.64 C 36.87 46.51 32.91 48.55 29.05 49.68 C 29.04 51.62 29.05 53.57 29.04 55.51 C 31.74 55.52 34.45 55.42 37.14 55.71 C 38.13 57.15 37.78 58.41 35.91 58.43 C 29.60 58.51 23.22 58.91 16.95 58.16 C 16.94 57.57 16.92 56.40 16.91 55.81 C 19.92 55.39 22.97 55.52 26.01 55.52 C 26.01 53.58 25.98 51.64 26.00 49.70 C 20.86 48.79 15.92 45.31 14.86 39.96 C 13.15 34.40 18.01 29.54 17.07 23.99 C 16.64 21.12 15.17 18.54 14.36 15.77 C 16.20 15.21 18.13 15.10 20.03 14.89 C 19.32 13.05 18.61 11.21 17.92 9.37 C 16.05 8.78 11.84 10.21 12.62 7.00 M 26.61 9.37 C 31.75 15.84 40.21 19.35 48.42 18.47 C 45.51 15.35 42.45 12.37 39.50 9.28 C 35.20 9.26 30.90 9.23 26.61 9.37 M 18.39 18.17 C 18.90 19.14 19.41 20.10 19.92 21.07 L 20.19 21.89 C 20.48 25.81 19.83 29.72 18.48 33.39 C 17.00 36.82 17.48 41.05 20.24 43.70 C 22.74 46.57 26.81 46.35 30.27 46.61 C 32.58 44.82 35.45 43.25 36.39 40.28 C 37.63 37.12 36.10 33.86 35.23 30.82 C 34.22 27.89 34.29 24.76 34.24 21.71 L 34.88 21.68 C 34.85 20.99 34.79 19.61 34.75 18.92 C 29.40 17.56 23.84 18.28 18.39 18.17 Z" />
</g>
<g id="#faf290ff">
<path fill="#faf290" opacity="1.00" d=" M 26.61 9.37 C 30.90 9.23 35.20 9.26 39.50 9.28 C 42.45 12.37 45.51 15.35 48.42 18.47 C 40.21 19.35 31.75 15.84 26.61 9.37 Z" />
</g>
<g id="#ffffffff">
<path fill="#ffffff" opacity="1.00" d=" M 18.39 18.17 C 23.84 18.28 29.40 17.56 34.75 18.92 C 34.79 19.61 34.85 20.99 34.88 21.68 L 34.24 21.71 C 33.56 21.75 32.21 21.82 31.53 21.86 C 29.22 21.95 26.91 21.96 24.60 21.99 C 24.43 23.87 24.28 25.75 24.00 27.62 C 21.88 27.18 21.45 24.76 20.61 23.09 C 20.50 22.79 20.30 22.19 20.19 21.89 L 19.92 21.07 C 19.41 20.10 18.90 19.14 18.39 18.17 Z" />
</g>
<g id="#6ec7b0ff">
<path fill="#6ec7b0" opacity="1.00" d=" M 20.19 21.89 C 20.30 22.19 20.50 22.79 20.61 23.09 C 21.45 24.76 21.88 27.18 24.00 27.62 C 24.28 25.75 24.43 23.87 24.60 21.99 C 26.91 21.96 29.22 21.95 31.53 21.86 C 31.02 26.73 32.67 31.39 33.63 36.08 C 34.51 39.96 31.88 43.33 30.27 46.61 C 26.81 46.35 22.74 46.57 20.24 43.70 C 17.48 41.05 17.00 36.82 18.48 33.39 C 19.83 29.72 20.48 25.81 20.19 21.89 M 22.35 35.40 C 21.27 36.71 23.53 38.31 24.45 36.94 C 25.52 35.63 23.27 34.03 22.35 35.40 M 23.08 39.37 C 21.46 39.74 22.20 42.39 23.78 41.84 C 25.38 41.46 24.66 38.82 23.08 39.37 M 27.14 39.85 C 26.54 41.45 27.07 42.03 28.73 41.58 C 29.31 39.97 28.78 39.40 27.14 39.85 Z" />
</g>
<g id="#63b39eff">
<path fill="#63b39e" opacity="1.00" d=" M 31.53 21.86 C 32.21 21.82 33.56 21.75 34.24 21.71 C 34.29 24.76 34.22 27.89 35.23 30.82 C 36.10 33.86 37.63 37.12 36.39 40.28 C 35.45 43.25 32.58 44.82 30.27 46.61 C 31.88 43.33 34.51 39.96 33.63 36.08 C 32.67 31.39 31.02 26.73 31.53 21.86 Z" />
</g>
<g id="#cbebe2ff">
<path fill="#cbebe2" opacity="1.00" d=" M 22.35 35.40 C 23.27 34.03 25.52 35.63 24.45 36.94 C 23.53 38.31 21.27 36.71 22.35 35.40 Z" />
</g>
<g id="#c9eae2ff">
<path fill="#c9eae2" opacity="1.00" d=" M 23.08 39.37 C 24.66 38.82 25.38 41.46 23.78 41.84 C 22.20 42.39 21.46 39.74 23.08 39.37 Z" />
</g>
<g id="#dbf1ecff">
<path fill="#dbf1ec" opacity="1.00" d=" M 27.14 39.85 C 28.78 39.40 29.31 39.97 28.73 41.58 C 27.07 42.03 26.54 41.45 27.14 39.85 Z" />
</g>
</svg>
